<?xml version="1.0" encoding="UTF-8"?>
<svg id="Camada_2" data-name="Camada 2" xmlns="http://www.w3.org/2000/svg" viewBox="0 0 1011.9 1435.41">
  <defs>
    <style>
      .cls-1 {
        fill: #eaeaea;
      }

      .cls-2 {
        fill: #ff6b1a;
      }
    </style>
  </defs>
  <g id="Camada_7" data-name="Camada 7">
    <g>
      <path class="cls-1" d="M363.46,464.41V0h75.26v455.23c0,67,32.12,101.88,80.77,101.88,11.93,0,24.78-.92,36.71-2.75v67c-14.69,2.75-32.12,3.67-45.89,3.67-88.11,0-146.86-58.74-146.86-160.62Z"/>
      <path class="cls-1" d="M928.85,145.91h75.26v468.1h-75.26v-48.65c-37.63,34.88-97.29,59.66-161.54,59.66-125.74,0-233.13-94.54-233.13-245.06s107.39-245.06,233.13-245.06c64.25,0,123.91,24.78,161.54,59.66v-48.65ZM928.85,491.02v-222.12c-39.47-41.3-97.29-66.08-151.44-66.08-88.11,0-164.29,66.08-166.13,177.14,1.84,111.06,78.02,177.14,166.13,177.14,52.32,0,111.06-24.78,151.44-66.08Z"/>
      <path class="cls-1" d="M404.77,748.75h75.26v415.78c-.92,147.77-102.8,242.31-247.82,242.31-63.33,0-137.68-17.44-186.32-44.06v-67.92c50.48,26.62,124.83,44.06,186.32,44.06,102.8,0,172.56-61.5,172.56-178.98v-2.75c-36.71,41.3-100.96,70.67-171.64,70.67-125.74,0-233.13-94.54-233.13-245.06s107.39-245.06,233.13-245.06c70.67,0,134.92,29.37,171.64,70.67v-59.66ZM404.77,1082.85v-200.09c-39.47-47.73-104.63-77.1-161.54-77.1-88.11,0-164.29,66.08-166.13,177.14,1.84,111.06,78.02,177.14,166.13,177.14,56.91,0,122.07-30.29,161.54-77.1Z"/>
      <path class="cls-1" d="M928.85,748.75h75.26v468.1h-75.26v-48.65c-37.63,34.88-97.29,59.66-161.54,59.66-125.74,0-233.13-94.54-233.13-245.06s107.39-245.06,233.13-245.06c64.25,0,123.91,24.78,161.54,59.66v-48.65ZM928.85,1093.86v-222.12c-39.47-41.3-97.29-66.08-151.44-66.08-88.11,0-164.29,66.08-166.13,177.14,1.84,111.06,78.02,177.14,166.13,177.14,52.32,0,111.06-24.78,151.44-66.08Z"/>
      <g>
        <path class="cls-1" d="M612.89,1396.32h49.39v7.01h-56.85v-104.45h7.46v97.44Z"/>
        <path class="cls-1" d="M765.39,1327.23h7.16v76.1h-7.16v-10.3c-6.27,7.31-17.46,12.09-28.65,12.09-22.23,0-38.2-15.67-38.2-39.84s15.97-39.84,38.2-39.84c11.19,0,22.38,4.78,28.65,12.09v-10.3ZM765.39,1385.28v-39.99c-6.42-8.06-17.01-13.28-28.35-13.28-18.05,0-31.19,12.98-31.19,33.28s13.13,33.27,31.19,33.27c10.3,0,21.64-5.22,28.35-13.28Z"/>
        <path class="cls-1" d="M905.36,1365.28c0,24.17-15.97,39.84-38.05,39.84-11.34,0-22.53-4.78-28.8-12.09v10.3h-7.16v-111.91h7.16v46.11c6.27-7.31,17.46-12.09,28.8-12.09,22.08,0,38.05,15.67,38.05,39.84ZM898.2,1365.28c-.15-20.29-13.28-33.28-31.33-33.28-11.34,0-21.93,5.22-28.35,13.28v39.99c6.71,8.06,18.2,13.28,28.35,13.28,18.05,0,31.19-12.98,31.33-33.27Z"/>
        <path class="cls-1" d="M951.17,1397.81v-7.31c6.42,4.63,16.86,8.21,25.52,8.21,16.12,0,21.34-7.16,21.34-14.17,0-8.66-6.57-11.79-14.32-14.33l-14.62-4.92c-14.17-4.48-17.61-11.19-17.61-19.25,0-14.62,13.58-20.59,27.31-20.59,7.91,0,16.86,2.39,22.23,5.82v6.86c-5.97-3.88-14.92-6.12-22.53-6.12-9.7,0-19.85,3.73-19.85,14.18,0,4.92,2.24,9.1,12.68,12.38l14.18,4.77c11.79,3.73,19.85,8.8,19.85,21.19,0,10.44-7.46,20.59-28.95,20.59-8.95,0-19.4-3.28-25.22-7.31Z"/>
      </g>
      <g>
        <path class="cls-2" d="M363.46,0h85.36v7.34L191.6,712.1c-2.67,4.09-7.22,6.55-12.1,6.55h0c-4.86,0-9.39-2.44-12.07-6.49L0,275.22v-7.34h84.44l96.45,289.23L363.46,0Z"/>
        <g>
          <path class="cls-2" d="M928.85,12.68v48.38c0,7,6.57,12.68,14.69,12.68h45.89c8.11,0,14.69-5.68,14.69-12.68V12.68c0-7-6.57-12.68-14.69-12.68h-45.89c-8.11,0-14.69,5.68-14.69,12.68Z"/>
          <rect class="cls-2" x="368.71" y="0" width="499.47" height="73.74"/>
        </g>
      </g>
    </g>
  </g>
</svg>